<?xml version="1.0" encoding="UTF-8"?>
<svg version="1.1" xmlns="http://www.w3.org/2000/svg" width="180" height="180">
<path d="M0 0 C2.1507987 -0.00961036 4.30060107 -0.04061049 6.45117188 -0.07226562 C17.97307243 -0.16260406 28.22309067 1.70267953 38.74804688 6.49023438 C39.42432129 6.79396973 40.1005957 7.09770508 40.79736328 7.41064453 C54.85941428 13.88566635 65.8484115 23.36477365 75.68554688 35.24023438 C76.13414062 35.76617187 76.58273438 36.29210938 77.04492188 36.83398438 C84.46764154 46.28108213 88.61653546 58.80569185 91.68554688 70.24023438 C91.86134277 70.81233643 92.03713867 71.38443848 92.21826172 71.97387695 C93.26534883 77.05230414 92.91183833 82.38186544 92.92578125 87.5546875 C92.93539161 89.7054862 92.96639174 91.85528857 92.99804688 94.00585938 C93.08838531 105.52775993 91.22310172 115.77777817 86.43554688 126.30273438 C86.13181152 126.97900879 85.82807617 127.6552832 85.51513672 128.35205078 C79.0401149 142.41410178 69.5610076 153.403099 57.68554688 163.24023438 C57.15960938 163.68882812 56.63367188 164.13742188 56.09179688 164.59960938 C46.64469912 172.02232904 34.1200894 176.17122296 22.68554688 179.24023438 C22.11344482 179.41603027 21.54134277 179.59182617 20.9519043 179.77294922 C15.87347711 180.82003633 10.54391581 180.46652583 5.37109375 180.48046875 C3.22029505 180.49007911 1.07049268 180.52107924 -1.08007812 180.55273438 C-12.60197868 180.64307281 -22.85199692 178.77778922 -33.37695312 173.99023438 C-34.39136475 173.53463135 -34.39136475 173.53463135 -35.42626953 173.06982422 C-49.48832053 166.5948024 -60.47731775 157.1156951 -70.31445312 145.24023438 C-70.76304688 144.71429688 -71.21164063 144.18835938 -71.67382812 143.64648438 C-79.09654779 134.19938662 -83.24544171 121.6747769 -86.31445312 110.24023438 C-86.49024902 109.66813232 -86.66604492 109.09603027 -86.84716797 108.5065918 C-87.89425508 103.42816461 -87.54074458 98.09860331 -87.5546875 92.92578125 C-87.56429786 90.77498255 -87.59529799 88.62518018 -87.62695312 86.47460938 C-87.71729156 74.95270882 -85.85200797 64.70269058 -81.06445312 54.17773438 C-80.76071777 53.50145996 -80.45698242 52.82518555 -80.14404297 52.12841797 C-73.66902115 38.06636697 -64.18991385 27.07736975 -52.31445312 17.24023438 C-51.78851563 16.79164062 -51.26257812 16.34304687 -50.72070312 15.88085938 C-41.27360537 8.45813971 -28.74899565 4.30924579 -17.31445312 1.24023438 C-16.74235107 1.06443848 -16.17024902 0.88864258 -15.58081055 0.70751953 C-10.50238336 -0.33956758 -5.17282206 0.01394292 0 0 Z " fill="#8CA1DA" transform="translate(87.314453125,-0.240234375)"/>
<path d="M0 0 C0.66 0.33 1.32 0.66 2 1 C2.34111929 2.7376675 2.5986412 4.49212768 2.8125 6.25 C3.64224479 11.42921346 4.99918102 13.51210653 9 17 C9.8125 19.8125 9.8125 19.8125 10 22 C8.68 21.67 7.36 21.34 6 21 C6.04640625 21.67546875 6.0928125 22.3509375 6.140625 23.046875 C6.44002839 30.4464159 6.44002839 30.4464159 4.0625 33.4375 C3.381875 33.953125 2.70125 34.46875 2 35 C1.10785348 37.67643957 0.86459789 39.25384378 0.875 42 C0.87242188 42.680625 0.86984375 43.36125 0.8671875 44.0625 C0.93368874 46.21874781 0.93368874 46.21874781 2 49 C2.99 49.33 3.98 49.66 5 50 C5.99 50.33 6.98 50.66 8 51 C9 54 9 54 9.1875 57.0625 C9.6250068 60.63798659 11.10142471 62.94524897 13.0625 65.9375 C16.10835617 70.68758522 16.49591986 73.44569753 16 79 C16.33 79.66 16.66 80.32 17 81 C17.2165625 82.1446875 17.2165625 82.1446875 17.4375 83.3125 C18.01019996 86.04873313 18.90096738 88.43559056 20 91 C25.18094524 91.64761816 28.02438907 90.14747663 32.265625 87.484375 C35.05978891 85.09297345 35.88417812 83.00930492 36.30078125 79.37890625 C36.3180381 75.23151014 36.2892933 71.8035925 34.875 67.875 C32.35647988 65.35647988 30.49868578 65.285607 27 65 C25.66262906 64.68325425 24.32711192 64.35729936 23 64 C23.875 59.125 23.875 59.125 25 58 C29.87706421 57.50402737 32.02288214 57.3986967 36.25 60 C41.50840381 65.11512305 43.64266569 71.31860644 44.09765625 78.54296875 C43.87623096 84.11402911 42.05626221 87.81799228 38.375 91.9375 C37.59125 92.618125 36.8075 93.29875 36 94 C35.67 94.33 35.34 94.66 35 95 C36.485 95.99 36.485 95.99 38 97 C26.22669552 100.10261201 14.22271336 99.11151628 2.1875 98.5625 C1.30916504 98.52342529 0.43083008 98.48435059 -0.47412109 98.4440918 C-1.29348145 98.40195557 -2.1128418 98.35981934 -2.95703125 98.31640625 C-3.68897705 98.27974854 -4.42092285 98.24309082 -5.17504883 98.20532227 C-7 98 -7 98 -9 97 C-9 97.33 -9 97.66 -9 98 C-13.58982793 98.04964866 -18.17949754 98.08583672 -22.76953125 98.10986328 C-24.32912929 98.11988557 -25.8887087 98.13350705 -27.44824219 98.15087891 C-29.69731254 98.1752941 -31.94613322 98.1865209 -34.1953125 98.1953125 C-35.23161301 98.21079636 -35.23161301 98.21079636 -36.28884888 98.22659302 C-40.57260162 98.22757315 -44.01712278 97.56605649 -48 96 C-48 95.67 -48 95.34 -48 95 C-47.030625 94.7525 -46.06125 94.505 -45.0625 94.25 C-44.051875 93.8375 -43.04125 93.425 -42 93 C-40.25145446 88.3841596 -41.05691152 83.1410691 -41.30273438 78.28710938 C-41.39638388 74.34342473 -41.32490297 72.50292272 -39.125 69.09765625 C-37.69321311 67.68429309 -36.25557077 66.27684017 -34.8125 64.875 C-32.77113594 63.0333941 -32.77113594 63.0333941 -32 60 C-31.34 60 -30.68 60 -30 60 C-30 59.34 -30 58.68 -30 58 C-29.34 58 -28.68 58 -28 58 C-28.185625 58.598125 -28.37125 59.19625 -28.5625 59.8125 C-29.22093687 62.16408762 -29.22093687 62.16408762 -28 65 C-27.34 65.33 -26.68 65.66 -26 66 C-26 66.99 -26 67.98 -26 69 C-21.99352249 67.6645075 -21.24255364 65.47234113 -19 62 C-18.01 61.505 -18.01 61.505 -17 61 C-15.95191959 59.02477154 -14.9479589 57.02518491 -14 55 C-14.82757813 55.24363281 -14.82757813 55.24363281 -15.671875 55.4921875 C-20.06741362 56.45094592 -24.5255832 56.1053533 -29 56 C-29.76570313 56.02964844 -30.53140625 56.05929688 -31.3203125 56.08984375 C-33.375 56.0625 -33.375 56.0625 -37 55 C-40.44353359 51.07773126 -41.88382095 47.21988 -42.375 42.0625 C-42 39 -42 39 -41 37 C-40.85869196 35.25841479 -40.77404294 33.51205843 -40.71875 31.765625 C-40.68136719 30.71632813 -40.64398438 29.66703125 -40.60546875 28.5859375 C-40.57066406 27.48507813 -40.53585938 26.38421875 -40.5 25.25 C-40.43068578 23.08842314 -40.35787417 20.92695508 -40.28125 18.765625 C-40.25095703 17.80430664 -40.22066406 16.84298828 -40.18945312 15.85253906 C-39.99008073 12.85064849 -39.54058458 9.95789498 -39 7 C-38.34 7 -37.68 7 -37 7 C-35.66666667 8.33333333 -34.33333333 9.66666667 -33 11 C-29.34510023 13.9488139 -29.34510023 13.9488139 -25 15 C-24.38125 14.649375 -23.7625 14.29875 -23.125 13.9375 C-20.59554978 12.82156608 -19.55019778 13.08921508 -17 14 C-17 14.33 -17 14.66 -17 15 C-16.34 15 -15.68 15 -15 15 C-14.34 13.35 -13.68 11.7 -13 10 C-12.34 10 -11.68 10 -11 10 C-11 9.34 -11 8.68 -11 8 C-9.217871 6.55925285 -7.37339724 5.19489351 -5.5 3.875 C-4.4790625 3.15054688 -3.458125 2.42609375 -2.40625 1.6796875 C-1.6121875 1.12539063 -0.818125 0.57109375 0 0 Z " fill="#02020C" transform="translate(104,36)"/>
<path d="M0 0 C0.66 0.33 1.32 0.66 2 1 C2.34111929 2.7376675 2.5986412 4.49212768 2.8125 6.25 C3.64224479 11.42921346 4.99918102 13.51210653 9 17 C9.8125 19.8125 9.8125 19.8125 10 22 C8.68 21.67 7.36 21.34 6 21 C6.04640625 21.67546875 6.0928125 22.3509375 6.140625 23.046875 C6.44002839 30.4464159 6.44002839 30.4464159 4.0625 33.4375 C3.381875 33.953125 2.70125 34.46875 2 35 C1.10785348 37.67643957 0.86459789 39.25384378 0.875 42 C0.87242188 42.680625 0.86984375 43.36125 0.8671875 44.0625 C0.93368874 46.21874781 0.93368874 46.21874781 2 49 C4.00016466 50.20882096 4.00016466 50.20882096 6 51 C3.1875 51.25 3.1875 51.25 0 51 C-2.24919265 48.77690008 -2.94827873 47.4297791 -3.328125 44.2734375 C-3.28945312 42.83871094 -3.28945312 42.83871094 -3.25 41.375 C-3.23453125 40.41335937 -3.2190625 39.45171875 -3.203125 38.4609375 C-3 36 -3 36 -2 34 C-3.98 34.495 -3.98 34.495 -6 35 C-4.68 32.69 -3.36 30.38 -2 28 C-4.71003427 27.8641965 -7.41318941 27.76555376 -10.125 27.6875 C-10.88554688 27.64560547 -11.64609375 27.60371094 -12.4296875 27.56054688 C-16.61208879 27.47040892 -19.15837271 27.69246829 -22.42578125 30.44140625 C-23.27527344 31.28574219 -24.12476562 32.13007812 -25 33 C-29.74742451 35.87722697 -33.65158273 36.18754507 -39 35 C-38.6390625 36.20398438 -38.278125 37.40796875 -37.90625 38.6484375 C-37.4373576 40.22391596 -36.96861537 41.79943912 -36.5 43.375 C-36.26152344 44.1690625 -36.02304688 44.963125 -35.77734375 45.78125 C-35.55175781 46.54179688 -35.32617188 47.30234375 -35.09375 48.0859375 C-34.88427734 48.7876709 -34.67480469 49.4894043 -34.45898438 50.21240234 C-34 52 -34 52 -34 54 C-35.485 54.495 -35.485 54.495 -37 55 C-40.42670538 49.60293902 -42.80998573 45.61488348 -42 39 C-41.67 38.34 -41.34 37.68 -41 37 C-40.85869196 35.25841479 -40.77404294 33.51205843 -40.71875 31.765625 C-40.68136719 30.71632813 -40.64398438 29.66703125 -40.60546875 28.5859375 C-40.57066406 27.48507813 -40.53585938 26.38421875 -40.5 25.25 C-40.43068578 23.08842314 -40.35787417 20.92695508 -40.28125 18.765625 C-40.25095703 17.80430664 -40.22066406 16.84298828 -40.18945312 15.85253906 C-39.99008073 12.85064849 -39.54058458 9.95789498 -39 7 C-38.34 7 -37.68 7 -37 7 C-35.66666667 8.33333333 -34.33333333 9.66666667 -33 11 C-29.34510023 13.9488139 -29.34510023 13.9488139 -25 15 C-24.38125 14.649375 -23.7625 14.29875 -23.125 13.9375 C-20.59554978 12.82156608 -19.55019778 13.08921508 -17 14 C-17 14.33 -17 14.66 -17 15 C-16.34 15 -15.68 15 -15 15 C-14.34 13.35 -13.68 11.7 -13 10 C-12.34 10 -11.68 10 -11 10 C-11 9.34 -11 8.68 -11 8 C-9.217871 6.55925285 -7.37339724 5.19489351 -5.5 3.875 C-4.4790625 3.15054688 -3.458125 2.42609375 -2.40625 1.6796875 C-1.6121875 1.12539063 -0.818125 0.57109375 0 0 Z " fill="#010343" transform="translate(104,36)"/>
<path d="M0 0 C0.66 0 1.32 0 2 0 C1.814375 0.598125 1.62875 1.19625 1.4375 1.8125 C0.77906313 4.16408762 0.77906313 4.16408762 2 7 C2.66 7.33 3.32 7.66 4 8 C4 8.99 4 9.98 4 11 C7.33537489 9.88820837 8.63707344 8.52588702 11 6 C12.125 9.75 12.125 9.75 11 12 C11.5878125 12.25136719 12.175625 12.50273438 12.78125 12.76171875 C15.27682175 14.15449383 16.66530515 15.63171498 18.5 17.8125 C19.09941406 18.52019531 19.69882813 19.22789063 20.31640625 19.95703125 C22.23559869 22.2858889 24.14207754 24.62185925 26 27 C25.67 27.66 25.34 28.32 25 29 C22.03 25.7 19.06 22.4 16 19 C16.680625 20.8871875 16.680625 20.8871875 17.375 22.8125 C19.17359977 28.17420264 21 34.29577805 21 40 C16.41017207 40.04964866 11.82050246 40.08583672 7.23046875 40.10986328 C5.67087071 40.11988557 4.1112913 40.13350705 2.55175781 40.15087891 C0.30268746 40.1752941 -1.94613322 40.1865209 -4.1953125 40.1953125 C-5.23161301 40.21079636 -5.23161301 40.21079636 -6.28884888 40.22659302 C-10.57260162 40.22757315 -14.01712278 39.56605649 -18 38 C-18 37.67 -18 37.34 -18 37 C-17.030625 36.7525 -16.06125 36.505 -15.0625 36.25 C-14.051875 35.8375 -13.04125 35.425 -12 35 C-10.25145446 30.3841596 -11.05691152 25.1410691 -11.30273438 20.28710938 C-11.39638388 16.34342473 -11.32490297 14.50292272 -9.125 11.09765625 C-7.69321311 9.68429309 -6.25557077 8.27684017 -4.8125 6.875 C-2.77113594 5.0333941 -2.77113594 5.0333941 -2 2 C-1.34 2 -0.68 2 0 2 C0 1.34 0 0.68 0 0 Z " fill="#060832" transform="translate(74,94)"/>
<path d="M0 0 C-0.33 0.804375 -0.66 1.60875 -1 2.4375 C-2.06059041 4.69681125 -2.06059041 4.69681125 -2 6 C-1.34 6 -0.68 6 0 6 C0 10.95 0 15.9 0 21 C-1.65 21.66 -3.3 22.32 -5 23 C-6.01868662 23.98095748 -7.02351983 24.97702078 -8 26 C-8.66 26 -9.32 26 -10 26 C-10 26.66 -10 27.32 -10 28 C-10.804375 27.814375 -11.60875 27.62875 -12.4375 27.4375 C-13.7059375 27.2209375 -13.7059375 27.2209375 -15 27 C-15.33 27.33 -15.66 27.66 -16 28 C-17.7465759 28.12601135 -19.4989234 28.17579494 -21.25 28.1875 C-22.68085937 28.20876953 -22.68085937 28.20876953 -24.140625 28.23046875 C-27.25350308 27.97956737 -29.28672574 27.55641589 -32 26 C-35.30000481 20.23469748 -36.50522983 13.5557047 -37 7 C-36.11248047 7.05220703 -36.11248047 7.05220703 -35.20703125 7.10546875 C-30.2035876 7.27687547 -27.0774919 7.19587203 -23 4 C-22.195625 3.113125 -21.39125 2.22625 -20.5625 1.3125 C-15.48508957 -3.13691493 -5.99976166 -1.99992055 0 0 Z " fill="#070719" transform="translate(102,64)"/>
<path d="M0 0 C1.23363281 -0.02126953 1.23363281 -0.02126953 2.4921875 -0.04296875 C5.125 0.1875 5.125 0.1875 7.81542969 1.18969727 C11.60797499 2.33311218 14.75334207 2.41447326 18.7109375 2.3828125 C19.41272125 2.3799826 20.114505 2.37715271 20.83755493 2.37423706 C23.05855028 2.36312512 25.27912845 2.33803834 27.5 2.3125 C29.01431705 2.30245854 30.52864049 2.29333473 32.04296875 2.28515625 C35.73711258 2.26321554 39.43101551 2.22874875 43.125 2.1875 C43.455 1.5275 43.785 0.8675 44.125 0.1875 C44.785 0.8475 45.445 1.5075 46.125 2.1875 C49.15060328 2.5056686 52.09042209 2.70436422 55.125 2.8125 C56.00897461 2.85044678 56.89294922 2.88839355 57.80371094 2.92749023 C66.57741389 3.27184792 75.3464129 3.28291943 84.125 3.1875 C79.3984375 7.125 79.3984375 7.125 76.9375 7.6875 C74.8999381 8.02640051 74.8999381 8.02640051 73.875 10.25 C73.50375 11.2090625 73.50375 11.2090625 73.125 12.1875 C71.475 12.1875 69.825 12.1875 68.125 12.1875 C67.63 11.1975 67.63 11.1975 67.125 10.1875 C63.825 10.1875 60.525 10.1875 57.125 10.1875 C57.125 9.5275 57.125 8.8675 57.125 8.1875 C55.475 8.1875 53.825 8.1875 52.125 8.1875 C52.13660156 9.12851563 52.14820313 10.06953125 52.16015625 11.0390625 C52.16917969 12.28429687 52.17820313 13.52953125 52.1875 14.8125 C52.19910156 16.04226562 52.21070313 17.27203125 52.22265625 18.5390625 C52.13363924 21.86473791 51.76186087 24.92797588 51.125 28.1875 C50.795 28.1875 50.465 28.1875 50.125 28.1875 C50.125 21.5875 50.125 14.9875 50.125 8.1875 C48.475 8.5175 46.825 8.8475 45.125 9.1875 C44.795 10.5075 44.465 11.8275 44.125 13.1875 C42.866875 13.22875 41.60875 13.27 40.3125 13.3125 C39.60480469 13.33570313 38.89710937 13.35890625 38.16796875 13.3828125 C36.125 13.1875 36.125 13.1875 33.125 11.1875 C32.63 9.7025 32.63 9.7025 32.125 8.1875 C20.905 7.5275 9.685 6.8675 -1.875 6.1875 C-1.875 5.1975 -1.875 4.2075 -1.875 3.1875 C-4.845 3.1875 -7.815 3.1875 -10.875 3.1875 C-7.6804393 -0.0070607 -4.38188684 0.03412684 0 0 Z " fill="#607EDC" transform="translate(50.875,130.8125)"/>
<path d="M0 0 C0.66 0.33 1.32 0.66 2 1 C4.08708012 7.26124037 3.54971958 13.944416 1 20 C-2.58638435 20.82762716 -5.52595997 21.00128405 -9.125 20.4375 C-15.88358983 19.56690199 -23.22779061 20.11253829 -28.9375 24 C-29.618125 24.66 -30.29875 25.32 -31 26 C-34.4320583 27.67417478 -36.07903833 28 -40 28 C-40.02719556 25.62492145 -40.04693247 23.25016036 -40.0625 20.875 C-40.07087891 20.20984375 -40.07925781 19.5446875 -40.08789062 18.859375 C-40.10782292 14.79318646 -39.78890161 10.9879908 -39 7 C-38.34 7 -37.68 7 -37 7 C-35.66666667 8.33333333 -34.33333333 9.66666667 -33 11 C-29.34510023 13.9488139 -29.34510023 13.9488139 -25 15 C-24.38125 14.649375 -23.7625 14.29875 -23.125 13.9375 C-20.59554978 12.82156608 -19.55019778 13.08921508 -17 14 C-17 14.33 -17 14.66 -17 15 C-16.34 15 -15.68 15 -15 15 C-14.34 13.35 -13.68 11.7 -13 10 C-12.34 10 -11.68 10 -11 10 C-11 9.34 -11 8.68 -11 8 C-9.217871 6.55925285 -7.37339724 5.19489351 -5.5 3.875 C-4.4790625 3.15054688 -3.458125 2.42609375 -2.40625 1.6796875 C-1.6121875 1.12539063 -0.818125 0.57109375 0 0 Z " fill="#030975" transform="translate(104,36)"/>
<path d="M0 0 C0.66 0 1.32 0 2 0 C1.814375 0.598125 1.62875 1.19625 1.4375 1.8125 C0.77906313 4.16408762 0.77906313 4.16408762 2 7 C2.66 7.33 3.32 7.66 4 8 C4 8.99 4 9.98 4 11 C7.33537489 9.88820837 8.63707344 8.52588702 11 6 C12.125 9.75 12.125 9.75 11 12 C11.5878125 12.25136719 12.175625 12.50273438 12.78125 12.76171875 C15.27682175 14.15449383 16.66530515 15.63171498 18.5 17.8125 C19.39912109 18.87404297 19.39912109 18.87404297 20.31640625 19.95703125 C22.23559869 22.2858889 24.14207754 24.62185925 26 27 C25.67 27.66 25.34 28.32 25 29 C20.545 24.05 20.545 24.05 16 19 C16.680625 20.9490625 16.680625 20.9490625 17.375 22.9375 C18.92507387 27.56568264 20.03917811 32.21849811 21 37 C20.01 37.495 20.01 37.495 19 38 C18.82984375 37.2265625 18.6596875 36.453125 18.484375 35.65625 C16.98536645 29.21370261 15.12391282 23.81694112 12 18 C12 17.34 12 16.68 12 16 C9.0957107 16.10792821 9.0957107 16.10792821 6 17 C3.37598286 19.99887673 2.80069259 22.8729082 2.125 26.6875 C1.671875 29.0390625 1.671875 29.0390625 1 31 C-1.625 32.5625 -1.625 32.5625 -4 33 C-4.33 32.34 -4.66 31.68 -5 31 C-5.78375 31.474375 -6.5675 31.94875 -7.375 32.4375 C-8.88948678 33.33898023 -10.4235897 34.21179485 -12 35 C-11.83411377 34.42113037 -11.66822754 33.84226074 -11.49731445 33.24584961 C-10.56723425 29.04564943 -11.08572798 24.57206617 -11.30273438 20.28710938 C-11.39638388 16.34342473 -11.32490297 14.50292272 -9.125 11.09765625 C-7.69321311 9.68429309 -6.25557077 8.27684017 -4.8125 6.875 C-2.77113594 5.0333941 -2.77113594 5.0333941 -2 2 C-1.34 2 -0.68 2 0 2 C0 1.34 0 0.68 0 0 Z " fill="#1A1D4C" transform="translate(74,94)"/>
<path d="M0 0 C3.84482269 0.06878037 6.15870581 1.00945633 8.99609375 3.76953125 C13.71780747 9.52806044 15.60759822 15.95032891 15.3125 23.375 C14.18879472 29.07308073 11.71833475 32.54888035 7.3125 36.375 C6.9825 36.705 6.6525 37.035 6.3125 37.375 C7.3025 38.035 8.2925 38.695 9.3125 39.375 C-5.25882193 43.2149719 -20.80968579 41.22084527 -35.6875 40.375 C-35.6875 40.045 -35.6875 39.715 -35.6875 39.375 C-26.7775 39.045 -17.8675 38.715 -8.6875 38.375 C-8.3575 37.715 -8.0275 37.055 -7.6875 36.375 C-7.6875 37.035 -7.6875 37.695 -7.6875 38.375 C-7.0275 38.375 -6.3675 38.375 -5.6875 38.375 C-5.6875 37.715 -5.6875 37.055 -5.6875 36.375 C-6.3475 35.715 -7.0075 35.055 -7.6875 34.375 C-6.79998047 34.13716797 -6.79998047 34.13716797 -5.89453125 33.89453125 C-0.59224814 32.32893053 2.70241362 30.77479278 6.3125 26.375 C8.27669608 22.44660785 7.64698086 17.66750431 7.3125 13.375 C6.42922853 10.22560538 6.42922853 10.22560538 4.3125 8.375 C1.38241681 7.53942277 1.38241681 7.53942277 -1.6875 7.375 C-3.02487094 7.05825425 -4.36038808 6.73229936 -5.6875 6.375 C-4.62773904 0.47061753 -4.62773904 0.47061753 0 0 Z " fill="#0B0C2D" transform="translate(132.6875,93.625)"/>
<path d="M0 0 C1.875 0.5625 1.875 0.5625 4 2 C5.25 5.625 5.25 5.625 6 9 C4.68 8.67 3.36 8.34 2 8 C2.04640625 8.67546875 2.0928125 9.3509375 2.140625 10.046875 C2.44002839 17.4464159 2.44002839 17.4464159 0.0625 20.4375 C-0.618125 20.953125 -1.29875 21.46875 -2 22 C-2.89214652 24.67643957 -3.13540211 26.25384378 -3.125 29 C-3.12757812 29.680625 -3.13015625 30.36125 -3.1328125 31.0625 C-3.06631126 33.21874781 -3.06631126 33.21874781 -2 36 C0.00016466 37.20882096 0.00016466 37.20882096 2 38 C-0.8125 38.25 -0.8125 38.25 -4 38 C-6.24919265 35.77690008 -6.94827873 34.4297791 -7.328125 31.2734375 C-7.30234375 30.31695312 -7.2765625 29.36046875 -7.25 28.375 C-7.23453125 27.41335937 -7.2190625 26.45171875 -7.203125 25.4609375 C-7 23 -7 23 -6 21 C-7.32 21.33 -8.64 21.66 -10 22 C-8.68 19.69 -7.36 17.38 -6 15 C-10.62 15 -15.24 15 -20 15 C-16.74524845 11.74524845 -15.95410987 11.54831961 -11.625 10.9375 C-7.79435545 10.38348116 -4.55134043 9.55613281 -1 8 C-0.67 5.36 -0.34 2.72 0 0 Z " fill="#02033B" transform="translate(108,49)"/>
<path d="M0 0 C0.33 0 0.66 0 1 0 C1 2.97 1 5.94 1 9 C-3.69294272 11.73452768 -7.16271982 12.34634184 -12.5625 12.4375 C-19.20147718 12.66544771 -24.92060545 13.85931281 -31.23046875 16.0625 C-33.820489 16.93923464 -36.31305887 17.51690271 -39 18 C-40.33542939 18.32483418 -41.66961551 18.6550855 -43 19 C-43 18.01 -43 17.02 -43 16 C-42.24074219 15.74605469 -41.48148437 15.49210937 -40.69921875 15.23046875 C-39.70535156 14.88628906 -38.71148437 14.54210938 -37.6875 14.1875 C-36.70136719 13.85105469 -35.71523437 13.51460937 -34.69921875 13.16796875 C-32.00808943 12.21936299 -32.00808943 12.21936299 -30.55859375 10.44140625 C-26.82145226 6.98525284 -19.86751369 7.35977275 -15 7 C-12.21875 7.171875 -12.21875 7.171875 -9.875 7.5 C-5.97982209 8.0026036 -5.10138317 8.07198791 -2 6 C-0.70768358 2.95800528 -0.70768358 2.95800528 0 0 Z " fill="#02065D" transform="translate(107,48)"/>
<path d="M0 0 C3.79670922 0.11692764 6.1365085 1.11116086 8.93359375 3.83203125 C13.82763601 9.80072967 14.93943694 15.85976131 15.25 23.4375 C14.97027344 22.79296875 14.69054687 22.1484375 14.40234375 21.484375 C13.41566266 19.18224832 13.41566266 19.18224832 10.8125 18.6875 C8.25 17.4375 8.25 17.4375 7.36328125 15.609375 C6.88041962 14.18889316 6.43209778 12.75607916 6.0234375 11.3125 C5.30211741 9.06949406 5.30211741 9.06949406 2.25 7.4375 C-0.08199388 7.35844936 -2.41832622 7.34951231 -4.75 7.4375 C-5.375 5.0625 -5.375 5.0625 -5.75 2.4375 C-3.75 0.4375 -3.75 0.4375 0 0 Z " fill="#0E20EA" transform="translate(132.75,93.5625)"/>
<path d="M0 0 C10.56 0 21.12 0 32 0 C27 4 27 4 24.8125 4.5 C22.7749381 4.83890051 22.7749381 4.83890051 21.75 7.0625 C21.5025 7.701875 21.255 8.34125 21 9 C19.35 9 17.7 9 16 9 C15.67 8.34 15.34 7.68 15 7 C11.7 7 8.4 7 5 7 C5 6.34 5 5.68 5 5 C3.35 4.67 1.7 4.34 0 4 C0 2.68 0 1.36 0 0 Z " fill="#1025C7" transform="translate(103,134)"/>
<path d="M0 0 C0.66 0.33 1.32 0.66 2 1 C4.08708012 7.26124037 3.54971958 13.944416 1 20 C-0.98 20.33 -2.96 20.66 -5 21 C-5 17.37 -5 13.74 -5 10 C-6.65 10 -8.3 10 -10 10 C-7.59983652 5.05848696 -4.47726973 2.95668756 0 0 Z " fill="#061EF0" transform="translate(104,36)"/>
<path d="M0 0 C0.66 0 1.32 0 2 0 C3.33333333 1.33333333 4.66666667 2.66666667 6 4 C7.99371825 5.34270821 9.9934562 6.67653494 12 8 C13.875 9.75 13.875 9.75 15 11 C7.57142857 15.28571429 7.57142857 15.28571429 4 17 C3.67 16.67 3.34 16.34 3 16 C1.68 16 0.36 16 -1 16 C-1.09688221 10.55306686 -1.12862175 5.36095333 0 0 Z " fill="#081296" transform="translate(65,43)"/>
<path d="M0 0 C1.23363281 -0.02126953 1.23363281 -0.02126953 2.4921875 -0.04296875 C5.125 0.1875 5.125 0.1875 7.81542969 1.17602539 C11.56618941 2.3223368 14.79266003 2.50752384 18.7109375 2.6015625 C19.41272125 2.62092865 20.114505 2.6402948 20.83755493 2.6602478 C23.05824999 2.71957569 25.27899823 2.76623917 27.5 2.8125 C29.01434434 2.85072302 30.52866794 2.88977722 32.04296875 2.9296875 C35.73678831 3.02523734 39.4307647 3.10943937 43.125 3.1875 C41.55044595 5.06442372 40.67343356 6.09290715 38.21444702 6.51702881 C37.49576447 6.49561829 36.77708191 6.47420776 36.03662109 6.45214844 C35.21922455 6.43512878 34.401828 6.41810913 33.55966187 6.40057373 C32.68145782 6.36635315 31.80325378 6.33213257 30.8984375 6.296875 C29.99501617 6.27280579 29.09159485 6.24873657 28.16079712 6.22393799 C26.2524909 6.17029554 24.34437935 6.10929737 22.43652344 6.04150391 C19.50481306 5.93767047 16.57312095 5.85552397 13.640625 5.77734375 C11.78902478 5.72261586 9.93746012 5.66666823 8.0859375 5.609375 C7.203685 5.58325134 6.3214325 5.55712769 5.41244507 5.5302124 C-0.75767522 5.30482478 -0.75767522 5.30482478 -1.875 4.1875 C-3.38969448 3.95557135 -4.91254562 3.77534762 -6.4375 3.625 C-7.26378906 3.54121094 -8.09007812 3.45742187 -8.94140625 3.37109375 C-9.57949219 3.31050781 -10.21757813 3.24992188 -10.875 3.1875 C-7.6804393 -0.0070607 -4.38188684 0.03412684 0 0 Z " fill="#0518DF" transform="translate(50.875,130.8125)"/>
<path d="M0 0 C0.99 0.33 1.98 0.66 3 1 C2.1875 3.9375 2.1875 3.9375 1 7 C0.01 7.33 -0.98 7.66 -2 8 C-3.10836423 9.88316159 -3.10836423 9.88316159 -4 12 C-4.99 13.485 -4.99 13.485 -6 15 C-6.99 15 -7.98 15 -9 15 C-9 14.01 -9 13.02 -9 12 C-9.99 11.67 -10.98 11.34 -12 11 C-12.6875 8.9375 -12.6875 8.9375 -13 7 C-12.34 7 -11.68 7 -11 7 C-11.33 5.68 -11.66 4.36 -12 3 C-10.82630859 2.80083984 -10.82630859 2.80083984 -9.62890625 2.59765625 C-8.61699219 2.42105469 -7.60507813 2.24445313 -6.5625 2.0625 C-5.55316406 1.88847656 -4.54382813 1.71445313 -3.50390625 1.53515625 C-1.0712562 1.25248903 -1.0712562 1.25248903 0 0 Z " fill="#EEEEEE" transform="translate(87,90)"/>
<path d="M0 0 C1.65 0 3.3 0 5 0 C12 13.51908397 12 13.51908397 12 20 C10.02 20.33 8.04 20.66 6 21 C6 21.66 6 22.32 6 23 C4.02 23 2.04 23 0 23 C0.66 22.67 1.32 22.34 2 22 C4.83034276 16.02483195 4.59434476 9.16757408 3.67578125 2.7265625 C3.45277344 2.15679687 3.22976562 1.58703125 3 1 C2.01 0.67 1.02 0.34 0 0 Z " fill="#01021C" transform="translate(81,110)"/>
<path d="M0 0 C1.0625 1.875 1.0625 1.875 2 4 C1.67 4.66 1.34 5.32 1 6 C1.5878125 6.25136719 2.175625 6.50273438 2.78125 6.76171875 C5.27682175 8.15449383 6.66530515 9.63171498 8.5 11.8125 C9.39912109 12.87404297 9.39912109 12.87404297 10.31640625 13.95703125 C12.23559869 16.2858889 14.14207754 18.62185925 16 21 C15.67 21.66 15.34 22.32 15 23 C10.545 18.05 10.545 18.05 6 13 C6.45375 14.299375 6.9075 15.59875 7.375 16.9375 C8.92507387 21.56568264 10.03917811 26.21849811 11 31 C10.34 31.33 9.68 31.66 9 32 C8.74476562 30.83984375 8.74476562 30.83984375 8.484375 29.65625 C6.98536645 23.21370261 5.12391282 17.81694112 2 12 C2 11.34 2 10.68 2 10 C-0.31 10.33 -2.62 10.66 -5 11 C-5 10.34 -5 9.68 -5 9 C-4.34 9 -3.68 9 -3 9 C-3 8.34 -3 7.68 -3 7 C-4.32 6.67 -5.64 6.34 -7 6 C-6.67 4.68 -6.34 3.36 -6 2 C-6 2.99 -6 3.98 -6 5 C-2.60085025 3.86695008 -1.94745549 2.87481525 0 0 Z " fill="#1A1B3D" transform="translate(84,100)"/>
<path d="M0 0 C0.33 0 0.66 0 1 0 C1.25 2.75 1.25 2.75 1 6 C-0.9375 8.1875 -0.9375 8.1875 -3 10 C-3.89214652 12.67643957 -4.13540211 14.25384378 -4.125 17 C-4.12757812 17.680625 -4.13015625 18.36125 -4.1328125 19.0625 C-4.06631126 21.21874781 -4.06631126 21.21874781 -3 24 C-0.99983534 25.20882096 -0.99983534 25.20882096 1 26 C-1.8125 26.25 -1.8125 26.25 -5 26 C-7.24919265 23.77690008 -7.94827873 22.4297791 -8.328125 19.2734375 C-8.30234375 18.31695312 -8.2765625 17.36046875 -8.25 16.375 C-8.23453125 15.41335937 -8.2190625 14.45171875 -8.203125 13.4609375 C-8 11 -8 11 -7 9 C-8.32 9.33 -9.64 9.66 -11 10 C-9.4375 7.0625 -9.4375 7.0625 -7 4 C-3.25 3.125 -3.25 3.125 0 3 C0 2.01 0 1.02 0 0 Z " fill="#061CEA" transform="translate(109,61)"/>
<path d="M0 0 C1.875 0.75 1.875 0.75 2.875 1.75 C3.078125 3.9296875 3.078125 3.9296875 3.125 6.625 C3.16367188 7.95144531 3.16367188 7.95144531 3.203125 9.3046875 C2.875 11.75 2.875 11.75 1.609375 13.5703125 C-0.125 14.75 -0.125 14.75 -4.125 14.75 C-5.35191067 12.29617866 -5.32675931 10.55015897 -5.375 7.8125 C-5.40078125 6.93722656 -5.4265625 6.06195313 -5.453125 5.16015625 C-5.125 2.75 -5.125 2.75 -3.7421875 0.91796875 C-2.125 -0.25 -2.125 -0.25 0 0 Z " fill="#202148" transform="translate(112.125,69.25)"/>
<path d="M0 0 C0.66 1.32 1.32 2.64 2 4 C1.01 4.495 1.01 4.495 0 5 C-0.46523063 6.89533342 -0.46523063 6.89533342 -0.625 9.0625 C-0.74875 10.361875 -0.8725 11.66125 -1 13 C0.65 13 2.3 13 4 13 C4 12.34 4 11.68 4 11 C4.99 11 5.98 11 7 11 C7 8.69 7 6.38 7 4 C7.99 3.67 8.98 3.34 10 3 C10.66 3.33 11.32 3.66 12 4 C12.33 3.01 12.66 2.02 13 1 C13.33 1.66 13.66 2.32 14 3 C13.2578125 5.0234375 13.2578125 5.0234375 12.125 7.375 C10.75438442 10.24083259 9.66759978 12.88926913 9 16 C7.68 16.33 6.36 16.66 5 17 C4.67 16.34 4.34 15.68 4 15 C2.824375 15.7115625 2.824375 15.7115625 1.625 16.4375 C0.11051322 17.33898023 -1.4235897 18.21179485 -3 19 C-2.83628906 18.47921875 -2.67257813 17.9584375 -2.50390625 17.421875 C-1.85941341 14.3243125 -1.90588411 11.41158906 -1.9375 8.25 C-1.94652344 7.07953125 -1.95554688 5.9090625 -1.96484375 4.703125 C-1.97644531 3.81109375 -1.98804688 2.9190625 -2 2 C-1.34 2 -0.68 2 0 2 C0 1.34 0 0.68 0 0 Z " fill="#2A2E55" transform="translate(65,110)"/>
<path d="M0 0 C0.66 0 1.32 0 2 0 C1.79375 0.5775 1.5875 1.155 1.375 1.75 C0.90582716 4.56503702 1.68732766 5.52908735 3 8 C3 9.32 3 10.64 3 12 C4.65 12 6.3 12 8 12 C7.67 12.99 7.34 13.98 7 15 C6.34 15 5.68 15 5 15 C4.01 17.475 4.01 17.475 3 20 C0 19 0 19 -1.6875 15.875 C-3.54744188 11.14237301 -3.61025005 6.83075014 -2 2 C-1.34 2 -0.68 2 0 2 C0 1.34 0 0.68 0 0 Z " fill="#14163B" transform="translate(74,94)"/>
<path d="M0 0 C1.98 0.66 3.96 1.32 6 2 C6 4.97 6 7.94 6 11 C-0.93 10.505 -0.93 10.505 -8 10 C-7.34 9.67 -6.68 9.34 -6 9 C-6 8.34 -6 7.68 -6 7 C-5.34 7 -4.68 7 -4 7 C-3.34 5.35 -2.68 3.7 -2 2 C-1.34 2 -0.68 2 0 2 C0 1.34 0 0.68 0 0 Z " fill="#020A83" transform="translate(93,44)"/>
<path d="M0 0 C2.24538034 3.84344382 3.1026736 7.9638019 4.125 12.25 C4.30675781 12.99507812 4.48851563 13.74015625 4.67578125 14.5078125 C5.12147499 16.3375026 5.56131959 18.16861575 6 20 C5.01 20.33 4.02 20.66 3 21 C-0.41407016 15.6228395 -2.88601737 11.58184335 -2 5 C-1 2.0625 -1 2.0625 0 0 Z " fill="#11132F" transform="translate(64,70)"/>
<path d="M0 0 C9.17286652 -0.63019694 9.17286652 -0.63019694 12.625 2 C13.07875 2.66 13.5325 3.32 14 4 C9.83825995 6.37813717 6.82488726 7.65793917 2 7 C0 4 0 4 0 0 Z " fill="#647ED5" transform="translate(122,121)"/>
<path d="M0 0 C4.07279689 0.38422612 7.46574118 0.87944471 11 3 C10.360625 3.12375 9.72125 3.2475 9.0625 3.375 C8.381875 3.58125 7.70125 3.7875 7 4 C6.67 4.66 6.34 5.32 6 6 C5.34 6 4.68 6 4 6 C3.9175 6.78375 3.835 7.5675 3.75 8.375 C3 11 3 11 0.953125 12.1640625 C-0.01367188 12.57785156 -0.01367188 12.57785156 -1 13 C-1.02686553 11.02090602 -1.04633375 9.04171029 -1.0625 7.0625 C-1.07410156 5.96035156 -1.08570312 4.85820313 -1.09765625 3.72265625 C-1 1 -1 1 0 0 Z " fill="#8394C6" transform="translate(68,90)"/>
<path d="M0 0 C0 0.66 0 1.32 0 2 C2.31 2.33 4.62 2.66 7 3 C7.33 2.34 7.66 1.68 8 1 C8.33 1.33 8.66 1.66 9 2 C11.18639453 2.07258946 13.37500389 2.08373783 15.5625 2.0625 C16.76003906 2.05347656 17.95757812 2.04445312 19.19140625 2.03515625 C20.58166016 2.01775391 20.58166016 2.01775391 22 2 C22.33 1.34 22.66 0.68 23 0 C24.98 0 26.96 0 29 0 C29.66 1.32 30.32 2.64 31 4 C26.41017207 4.04964866 21.82050246 4.08583672 17.23046875 4.10986328 C15.67087071 4.11988557 14.1112913 4.13350705 12.55175781 4.15087891 C10.30268746 4.1752941 8.05386678 4.1865209 5.8046875 4.1953125 C4.76838699 4.21079636 4.76838699 4.21079636 3.71115112 4.22659302 C-0.57260162 4.22757315 -4.01712278 3.56605649 -8 2 C-8 1.67 -8 1.34 -8 1 C-5.23735711 0.40267181 -2.83967231 0 0 0 Z " fill="#0D135D" transform="translate(64,130)"/>
<path d="M0 0 C0.66 0 1.32 0 2 0 C2.125 6.625 2.125 6.625 1 10 C-0.98 10.33 -2.96 10.66 -5 11 C-5.66 14.96 -6.32 18.92 -7 23 C-7.66 23 -8.32 23 -9 23 C-9.28838914 17.42447662 -9.178344 13.82637422 -6 9 C-5.01 8.67 -4.02 8.34 -3 8 C-2.25740651 5.68970915 -1.588562 3.354248 -1 1 C-0.67 0.67 -0.34 0.34 0 0 Z " fill="#E5E8F0" transform="translate(113,59)"/>
<path d="M0 0 C3.16717283 1.58358642 4.73268318 2.45263699 6.3125 5.6875 C6.6528125 6.8321875 6.6528125 6.8321875 7 8 C2.40456709 10.29771645 -4.17247654 9.24581251 -9 8 C-7 6 -7 6 -3.9375 5.125 C-2.4834375 4.568125 -2.4834375 4.568125 -1 4 C-0.03122943 1.96756452 -0.03122943 1.96756452 0 0 Z " fill="#4964CD" transform="translate(56,122)"/>
<path d="M0 0 C1.875 0.625 1.875 0.625 4 2 C5.25 5.125 5.25 5.125 6 8 C5.67 8 5.34 8 5 8 C4.67 9.98 4.34 11.96 4 14 C3.01 14 2.02 14 1 14 C1 14.66 1 15.32 1 16 C-0.65 16 -2.3 16 -4 16 C-3.67 15.01 -3.34 14.02 -3 13 C-2.34 12.67 -1.68 12.34 -1 12 C-0.09274566 9.88672575 -0.09274566 9.88672575 0.625 7.4375 C1.01558594 6.19806641 1.01558594 6.19806641 1.4140625 4.93359375 C1.60742188 4.29550781 1.80078125 3.65742187 2 3 C1.01 2.67 0.02 2.34 -1 2 C-0.67 1.34 -0.34 0.68 0 0 Z " fill="#121445" transform="translate(68,107)"/>
<path d="M0 0 C0 4.95 0 9.9 0 15 C-1.65 15.33 -3.3 15.66 -5 16 C-5.19601608 14.25093341 -5.38147403 12.50068154 -5.5625 10.75 C-5.66691406 9.77546875 -5.77132812 8.8009375 -5.87890625 7.796875 C-5.99133925 5.20003537 -6.00376885 3.391493 -5 1 C-2 0 -2 0 0 0 Z " fill="#171935" transform="translate(102,70)"/>
<path d="M0 0 C18.81 0.495 18.81 0.495 38 1 C38 1.66 38 2.32 38 3 C37.34 3 36.68 3 36 3 C36.495 4.98 36.495 4.98 37 7 C36.34 7 35.68 7 35 7 C34.505 5.515 34.505 5.515 34 4 C22.78 3.34 11.56 2.68 0 2 C0 1.34 0 0.68 0 0 Z " fill="#667EDC" transform="translate(49,135)"/>
<path d="M0 0 C0.66 0.33 1.32 0.66 2 1 C2 4.96 2 8.92 2 13 C1.34 13 0.68 13 0 13 C-0.33 13.66 -0.66 14.32 -1 15 C-1 14.01 -1 13.02 -1 12 C-2.32 11.67 -3.64 11.34 -5 11 C-5 9.68 -5 8.36 -5 7 C-4.34 7 -3.68 7 -3 7 C-2.87625 6.21625 -2.7525 5.4325 -2.625 4.625 C-2 2 -2 2 0 0 Z " fill="#8598CF" transform="translate(62,113)"/>
<path d="M0 0 C1.4370809 -0.05422947 2.87475462 -0.09289723 4.3125 -0.125 C5.11300781 -0.14820313 5.91351563 -0.17140625 6.73828125 -0.1953125 C9 0 9 0 12 2 C11.01 2 10.02 2 9 2 C9.01160156 2.94101563 9.02320312 3.88203125 9.03515625 4.8515625 C9.04869141 6.71941406 9.04869141 6.71941406 9.0625 8.625 C9.07410156 9.85476562 9.08570312 11.08453125 9.09765625 12.3515625 C9.00863924 15.67723791 8.63686087 18.74047588 8 22 C7.67 22 7.34 22 7 22 C7 15.4 7 8.8 7 2 C5.68 2.33 4.36 2.66 3 3 C2.01 2.67 1.02 2.34 0 2 C0 1.34 0 0.68 0 0 Z " fill="#6580D0" transform="translate(94,137)"/>
<path d="M0 0 C0.66 0 1.32 0 2 0 C2.66 1.65 3.32 3.3 4 5 C8.95 5.33 13.9 5.66 19 6 C14.79003096 8.10498452 13.25872962 8.19144951 8.703125 7.9765625 C7.49785156 7.925 6.29257812 7.8734375 5.05078125 7.8203125 C3.79652344 7.75585938 2.54226562 7.69140625 1.25 7.625 C-0.01972656 7.56828125 -1.28945313 7.5115625 -2.59765625 7.453125 C-5.73234615 7.31171042 -8.86622836 7.16030009 -12 7 C-12 6.67 -12 6.34 -12 6 C-8.37 6 -4.74 6 -1 6 C-1 4.35 -1 2.7 -1 1 C-0.67 0.67 -0.34 0.34 0 0 Z " fill="#778BD4" transform="translate(27,125)"/>
<path d="M0 0 C3.96 0 7.92 0 12 0 C11.01 1.485 11.01 1.485 10 3 C9.01 3 8.02 3 7 3 C6.34 4.32 5.68 5.64 5 7 C3.35 7 1.7 7 0 7 C0 4.69 0 2.38 0 0 Z " fill="#0823F0" transform="translate(119,136)"/>
<path d="M0 0 C1.30324219 -0.02126953 1.30324219 -0.02126953 2.6328125 -0.04296875 C4.875 0.1875 4.875 0.1875 6.875 2.1875 C5.885 2.5175 4.895 2.8475 3.875 3.1875 C5.195 3.8475 6.515 4.5075 7.875 5.1875 C6.39593108 5.21439216 4.91672517 5.23384621 3.4375 5.25 C2.20193359 5.26740234 2.20193359 5.26740234 0.94140625 5.28515625 C-1.125 5.1875 -1.125 5.1875 -2.125 4.1875 C-3.63969448 3.95557135 -5.16254562 3.77534762 -6.6875 3.625 C-7.51378906 3.54121094 -8.34007812 3.45742187 -9.19140625 3.37109375 C-9.82949219 3.31050781 -10.46757813 3.24992188 -11.125 3.1875 C-7.86742294 -0.07007706 -4.46597598 0.03332818 0 0 Z " fill="#1F32CE" transform="translate(51.125,130.8125)"/>
<path d="M0 0 C2 0 2 0 4.6875 2.25 C7 5 7 5 6.8125 7.3125 C6.4103125 8.1478125 6.4103125 8.1478125 6 9 C3.69 9.33 1.38 9.66 -1 10 C-0.67 6.7 -0.34 3.4 0 0 Z " fill="#102AE8" transform="translate(65,43)"/>
<path d="M0 0 C0.66 0 1.32 0 2 0 C3.45184478 4.53701494 4.23509196 8.18061476 4 13 C3.6596875 12.071875 3.6596875 12.071875 3.3125 11.125 C2.15195665 8.75610871 2.15195665 8.75610871 -0.5625 8.0625 C-1.366875 7.711875 -2.17125 7.36125 -3 7 C-3.8125 4.375 -3.8125 4.375 -4 2 C-2.68 2 -1.36 2 0 2 C0 1.34 0 0.68 0 0 Z " fill="#0A18B3" transform="translate(144,104)"/>
<path d="M0 0 C4 2 4 2 5.25 5.625 C5.4975 6.73875 5.745 7.8525 6 9 C4.68 8.67 3.36 8.34 2 8 C1.67 10.31 1.34 12.62 1 15 C0.34 15 -0.32 15 -1 15 C-0.67 10.05 -0.34 5.1 0 0 Z " fill="#121337" transform="translate(108,49)"/>
<path d="M0 0 C1.2065625 0.0309375 1.2065625 0.0309375 2.4375 0.0625 C2.4375 1.7125 2.4375 3.3625 2.4375 5.0625 C-1.1925 5.0625 -4.8225 5.0625 -8.5625 5.0625 C-8.5625 4.4025 -8.5625 3.7425 -8.5625 3.0625 C-10.2125 2.7325 -11.8625 2.4025 -13.5625 2.0625 C-13.5625 1.7325 -13.5625 1.4025 -13.5625 1.0625 C-12.85222656 1.07410156 -12.14195313 1.08570313 -11.41015625 1.09765625 C-10.49105469 1.10667969 -9.57195312 1.11570313 -8.625 1.125 C-7.25021484 1.14240234 -7.25021484 1.14240234 -5.84765625 1.16015625 C-3.00788287 1.03879841 -2.9400358 0.07170819 0 0 Z " fill="#3554DF" transform="translate(116.5625,135.9375)"/>
<path d="M0 0 C0.99 0 1.98 0 3 0 C3.33 1.65 3.66 3.3 4 5 C0.04 6.98 -3.92 8.96 -8 11 C-5.98914116 5.9728529 -5.08686899 5.03895386 -1 2 C-0.67 1.34 -0.34 0.68 0 0 Z " fill="#08092A" transform="translate(104,87)"/>
<path d="M0 0 C0.99 0.33 1.98 0.66 3 1 C3 1.66 3 2.32 3 3 C4.32 3.66 5.64 4.32 7 5 C6.67 6.32 6.34 7.64 6 9 C4.35 9.33 2.7 9.66 1 10 C-0.60725635 6.78548731 -0.05748185 3.56387464 0 0 Z " fill="#030329" transform="translate(107,74)"/>
<path d="M0 0 C1.98 0.66 3.96 1.32 6 2 C6.02712066 3.43739513 6.04645067 4.87493863 6.0625 6.3125 C6.07410156 7.11300781 6.08570312 7.91351563 6.09765625 8.73828125 C6 11 6 11 5 14 C4.34 13.67 3.68 13.34 3 13 C3.66 9.7 4.32 6.4 5 3 C1.7317186 5.61210269 1.7317186 5.61210269 1.8125 8.6875 C1.874375 9.450625 1.93625 10.21375 2 11 C-1.03333922 7.96666078 -0.6646334 5.2256192 -1 1 C-0.67 0.67 -0.34 0.34 0 0 Z " fill="#B7BBCF" transform="translate(110,56)"/>
<path d="M0 0 C3.44164469 1.52961986 6.09151758 3.62729066 9 6 C9.66 6.33 10.32 6.66 11 7 C11 7.99 11 8.98 11 10 C8.75946342 8.95975088 6.92558087 7.93953446 5 6.375 C2.85514888 4.62231412 2.85514888 4.62231412 -1 5 C-1.33 4.01 -1.66 3.02 -2 2 C-1.34 2 -0.68 2 0 2 C0 1.34 0 0.68 0 0 Z " fill="#070835" transform="translate(102,121)"/>
<path d="M0 0 C2.97 0.495 2.97 0.495 6 1 C5.67 3.31 5.34 5.62 5 8 C3.02 8 1.04 8 -1 8 C-0.67 5.36 -0.34 2.72 0 0 Z " fill="#020662" transform="translate(141,111)"/>
<path d="M0 0 C2.09821215 -0.39938767 2.09821215 -0.39938767 4 -1 C1.63907689 1.73370045 -0.56538728 2.91097645 -4 4 C-5.32 4 -6.64 4 -8 4 C-8 2.35 -8 0.7 -8 -1 C-4.38936946 -2.08318916 -3.32823121 -1.66411561 0 0 Z " fill="#030872" transform="translate(72,60)"/>
<path d="M0 0 C1.17076699 3.98060777 2.25749403 7.91621717 3 12 C1.68 10.35 0.36 8.7 -1 7 C-2.65 7.33 -4.3 7.66 -6 8 C-6 5 -6 5 -3.5625 2.3125 C-1 0 -1 0 0 0 Z " fill="#2D325E" transform="translate(71,101)"/>
<path d="M0 0 C1.98 0.66 3.96 1.32 6 2 C6 4.31 6 6.62 6 9 C5.67 8.01 5.34 7.02 5 6 C2.69 6 0.38 6 -2 6 C-2 4.68 -2 3.36 -2 2 C-1.34 2 -0.68 2 0 2 C0 1.34 0 0.68 0 0 Z " fill="#0617B7" transform="translate(93,44)"/>
<path d="M0 0 C0.99 0.66 1.98 1.32 3 2 C4.9896995 2.39013716 6.99019869 2.73202649 9 3 C9 3.99 9 4.98 9 6 C5.04 6 1.08 6 -3 6 C-2.01 4.68 -1.02 3.36 0 2 C0 1.34 0 0.68 0 0 Z " fill="#304EDF" transform="translate(94,131)"/>
<path d="M0 0 C1.65 0 3.3 0 5 0 C5 0.66 5 1.32 5 2 C5.66 2 6.32 2 7 2 C7.33 3.98 7.66 5.96 8 8 C5.36 6.68 2.72 5.36 0 4 C0 2.68 0 1.36 0 0 Z " fill="#050425" transform="translate(110,112)"/>
<path d="M0 0 C1.98 0 3.96 0 6 0 C6.66 1.32 7.32 2.64 8 4 C3.38 4 -1.24 4 -6 4 C-6 3.67 -6 3.34 -6 3 C-5.195625 2.87625 -4.39125 2.7525 -3.5625 2.625 C-2.716875 2.41875 -1.87125 2.2125 -1 2 C-0.67 1.34 -0.34 0.68 0 0 Z " fill="#060B75" transform="translate(87,130)"/>
<path d="M0 0 C0.625 1.875 0.625 1.875 1 4 C-1.3129482 6.3129482 -2.47904875 6.49580975 -5.625 7.125 C-6.44226563 7.29257813 -7.25953125 7.46015625 -8.1015625 7.6328125 C-9.04128906 7.81457031 -9.04128906 7.81457031 -10 8 C-8.375 5 -8.375 5 -6 2 C-2.75 1.625 -2.75 1.625 0 2 C0 1.34 0 0.68 0 0 Z " fill="#090B44" transform="translate(146,117)"/>
<path d="M0 0 C0.33 0 0.66 0 1 0 C1.33 2.97 1.66 5.94 2 9 C5.54518884 7.60240095 5.54518884 7.60240095 9 6 C7.84826645 8.46800047 6.95216435 10.04783565 5 12 C3.02 11.34 1.04 10.68 -1 10 C-0.67 6.7 -0.34 3.4 0 0 Z " fill="#8C93B2" transform="translate(106,75)"/>
<path d="M0 0 C0 0.99 0 1.98 0 3 C-6.625 6 -6.625 6 -10 6 C-10 5.34 -10 4.68 -10 4 C-9.01 3.67 -8.02 3.34 -7 3 C-7.33 2.34 -7.66 1.68 -8 1 C-4.93251126 -0.86240388 -3.40254489 -1.2151946 0 0 Z " fill="#131962" transform="translate(87,50)"/>
<path d="M0 0 C0.33 0 0.66 0 1 0 C1 1.98 1 3.96 1 6 C0.67 5.34 0.34 4.68 0 4 C-3.62793998 5.86566488 -3.62793998 5.86566488 -6 9 C-8.5625 9.625 -8.5625 9.625 -11 10 C-9.4375 7.0625 -9.4375 7.0625 -7 4 C-3.25 3.125 -3.25 3.125 0 3 C0 2.01 0 1.02 0 0 Z " fill="#545A77" transform="translate(109,61)"/>
<path d="M0 0 C-0.28875 0.556875 -0.5775 1.11375 -0.875 1.6875 C-2.0413253 4.08494645 -3.0339881 6.51596939 -4 9 C-5.32 9 -6.64 9 -8 9 C-5.4 0 -5.4 0 0 0 Z " fill="#2160D0" transform="translate(109,65)"/>
<path d="M0 0 C0 0.33 0 0.66 0 1 C-4.62 1 -9.24 1 -14 1 C-14.33 1.99 -14.66 2.98 -15 4 C-16.32 3.67 -17.64 3.34 -19 3 C-13.24525387 -2.42590349 -7.43661928 -1.0150875 0 0 Z " fill="#566EC0" transform="translate(148,135)"/>
<path d="M0 0 C0.598125 0.20625 1.19625 0.4125 1.8125 0.625 C0.4925 2.275 -0.8275 3.925 -2.1875 5.625 C-3.1775 5.295 -4.1675 4.965 -5.1875 4.625 C-5.1875 3.635 -5.1875 2.645 -5.1875 1.625 C-2.1875 -0.375 -2.1875 -0.375 0 0 Z " fill="#000121" transform="translate(98.1875,63.375)"/>
<path d="M0 0 C0.33 0 0.66 0 1 0 C1 2.97 1 5.94 1 9 C-2 7.1875 -2 7.1875 -5 5 C-5 4.01 -5 3.02 -5 2 C-3.35 2 -1.7 2 0 2 C0 1.34 0 0.68 0 0 Z " fill="#526EDC" transform="translate(124,141)"/>
<path d="M0 0 C0.4125 0.45375 0.825 0.9075 1.25 1.375 C3.19019186 3.32917823 3.19019186 3.32917823 7 5 C2.545 5.495 2.545 5.495 -2 6 C-2.33 4.35 -2.66 2.7 -3 1 C-2.01 0.67 -1.02 0.34 0 0 Z " fill="#7D91D1" transform="translate(123,116)"/>
<path d="M0 0 C3.66223158 0.49489616 5.66993926 1.05676537 8 4 C8 4.33 8 4.66 8 5 C6.02 5 4.04 5 2 5 C1.34 3.35 0.68 1.7 0 0 Z " fill="#374BA8" transform="translate(122,123)"/>
<path d="M0 0 C-0.33 1.32 -0.66 2.64 -1 4 C-3.31 4 -5.62 4 -8 4 C-7.67 3.01 -7.34 2.02 -7 1 C-4.53721199 -0.231394 -2.7204945 -0.07159196 0 0 Z " fill="#6C7DD1" transform="translate(92,81)"/>
<path d="M0 0 C3.17772443 1.80357333 5.37886292 3.37886292 8 6 C4.04 7.98 4.04 7.98 0 10 C-0.33 9.01 -0.66 8.02 -1 7 C0.32 6.34 1.64 5.68 3 5 C2.67 4.01 2.34 3.02 2 2 C1.34 2 0.68 2 0 2 C0 1.34 0 0.68 0 0 Z " fill="#1E29AB" transform="translate(72,48)"/>
<path d="M0 0 C0.33 0.99 0.66 1.98 1 3 C2.98 2.67 4.96 2.34 7 2 C6.67 3.65 6.34 5.3 6 7 C6.99 7.33 7.98 7.66 9 8 C6.69 8.33 4.38 8.66 2 9 C2 8.34 2 7.68 2 7 C2.66 7 3.32 7 4 7 C4 6.34 4 5.68 4 5 C2.68 4.67 1.36 4.34 0 4 C0 2.68 0 1.36 0 0 Z " fill="#535568" transform="translate(77,102)"/>
<path d="M0 0 C1.85776765 3.13498292 2.20140476 5.37471432 2 9 C1.34 8.67 0.68 8.34 0 8 C-0.66 9.32 -1.32 10.64 -2 12 C-2.17835515 7.45194365 -1.99785435 4.1205746 0 0 Z " fill="#484A68" transform="translate(64,70)"/>
<path d="M0 0 C0.33 0.66 0.66 1.32 1 2 C3.31 2 5.62 2 8 2 C8 2.66 8 3.32 8 4 C4.37 4 0.74 4 -3 4 C-2.34 3.67 -1.68 3.34 -1 3 C-0.67 2.01 -0.34 1.02 0 0 Z " fill="#071195" transform="translate(90,48)"/>
<path d="M0 0 C0.66 0.33 1.32 0.66 2 1 C1.67 2.32 1.34 3.64 1 5 C-1.31 5.33 -3.62 5.66 -6 6 C-6 4.68 -6 3.36 -6 2 C-4.35 2 -2.7 2 -1 2 C-0.67 1.34 -0.34 0.68 0 0 Z " fill="#0C21D9" transform="translate(70,47)"/>
<path d="M0 0 C0.66 0.33 1.32 0.66 2 1 C1.67 3.31 1.34 5.62 1 8 C-0.32 7.67 -1.64 7.34 -3 7 C-2.67 5.35 -2.34 3.7 -2 2 C-1.34 2 -0.68 2 0 2 C0 1.34 0 0.68 0 0 Z " fill="#13152B" transform="translate(111,87)"/>
<path d="M0 0 C0 0.99 0 1.98 0 3 C-2.3125 3.625 -2.3125 3.625 -5 4 C-5.99 3.34 -6.98 2.68 -8 2 C-4.77208445 -0.1519437 -3.71599191 -0.20086443 0 0 Z " fill="#05062C" transform="translate(107,61)"/>
<path d="M0 0 C0.33 0.99 0.66 1.98 1 3 C-2.67410785 4.17571451 -6.16929183 4.07366746 -10 4 C-9.67 3.34 -9.34 2.68 -9 2 C-2.88888889 0 -2.88888889 0 0 0 Z " fill="#0214BD" transform="translate(74,50)"/>
<path d="M0 0 C0.33 1.65 0.66 3.3 1 5 C-1.97 4.67 -4.94 4.34 -8 4 C-5.60952106 1.60952106 -3.45854519 0 0 0 Z " fill="#5974D7" transform="translate(55,126)"/>
<path d="M0 0 C2.31 0 4.62 0 7 0 C5.68 1.32 4.36 2.64 3 4 C2.01 3.67 1.02 3.34 0 3 C0 2.01 0 1.02 0 0 Z " fill="#2E4FE1" transform="translate(85,138)"/>
<path d="M0 0 C2.29013653 3.4352048 2.17842973 4.985331 2 9 C1.6596875 8.071875 1.6596875 8.071875 1.3125 7.125 C-0.37929835 4.38589791 -1.99244161 3.94975528 -5 3 C-2 2 -2 2 0 2 C0 1.34 0 0.68 0 0 Z " fill="#121D94" transform="translate(146,108)"/>
<path d="M0 0 C1.0625 1.875 1.0625 1.875 2 4 C1.67 4.66 1.34 5.32 1 6 C1.66 6.33 2.32 6.66 3 7 C1.02 7.99 1.02 7.99 -1 9 C-0.67 7.35 -0.34 5.7 0 4 C-0.66 4 -1.32 4 -2 4 C-1.34 2.68 -0.68 1.36 0 0 Z " fill="#212137" transform="translate(84,100)"/>
<path d="M0 0 C0.66 0.33 1.32 0.66 2 1 C2.33 1.99 2.66 2.98 3 4 C5.00016466 5.20882096 5.00016466 5.20882096 7 6 C4.125 6.125 4.125 6.125 1 6 C0.34 5.34 -0.32 4.68 -1 4 C-0.625 1.875 -0.625 1.875 0 0 Z " fill="#1823C2" transform="translate(103,81)"/>
<path d="M0 0 C2.97 0 5.94 0 9 0 C5.93882432 2.62386487 5.26826873 3 1 3 C0.67 2.01 0.34 1.02 0 0 Z " fill="#0828F6" transform="translate(108,135)"/>
<path d="M0 0 C0.66 0.33 1.32 0.66 2 1 C1.67 2.32 1.34 3.64 1 5 C-0.65 4.67 -2.3 4.34 -4 4 C-4 3.34 -4 2.68 -4 2 C-2.68 2 -1.36 2 0 2 C0 1.34 0 0.68 0 0 Z " fill="#0B1FD9" transform="translate(143,101)"/>
<path d="M0 0 C2.97 0.495 2.97 0.495 6 1 C6 1.99 6 2.98 6 4 C4.02 4 2.04 4 0 4 C0 2.68 0 1.36 0 0 Z " fill="#050D82" transform="translate(141,111)"/>
<path d="M0 0 C0.99 0 1.98 0 3 0 C3.33 1.65 3.66 3.3 4 5 C1.03 4.505 1.03 4.505 -2 4 C-1.34 2.68 -0.68 1.36 0 0 Z " fill="#06073C" transform="translate(104,87)"/>
<path d="M0 0 C2.12508244 3.18762365 2.5020163 5.26512223 3 9 C2.01 9.33 1.02 9.66 0 10 C-1 7 -1 7 0 4 C0 2.68 0 1.36 0 0 Z " fill="#434558" transform="translate(67,81)"/>
<path d="M0 0 C0.66 0 1.32 0 2 0 C2.33 1.65 2.66 3.3 3 5 C2.01 5.33 1.02 5.66 0 6 C-0.38218767 4.34385343 -0.71395102 2.67542976 -1 1 C-0.67 0.67 -0.34 0.34 0 0 Z " fill="#070A1D" transform="translate(65,82)"/>
<path d="M0 0 C0.33 0 0.66 0 1 0 C1 2.31 1 4.62 1 7 C-0.98 7.99 -0.98 7.99 -3 9 C-2.01 6.03 -1.02 3.06 0 0 Z " fill="#090C84" transform="translate(107,48)"/>
</svg>
